HIERARCHY
ROOT Hips
{
  OFFSET -187.679 86.5976 -156.378
  CHANNELS 6 Xposition Yposition Zposition Zrotation Xrotation Yrotation
  JOINT LeftUpLeg
  {
    OFFSET 8.64259 1.95398 -2.38835
    CHANNELS 3 Zrotation Xrotation Yrotation
    JOINT LeftLeg
    {
      OFFSET 43.7702 0 0
      CHANNELS 3 Zrotation Xrotation Yrotation
      JOINT LeftFoot
      {
        OFFSET 40.6238 0 0
        CHANNELS 3 Zrotation Xrotation Yrotation
        JOINT LeftToeBase
        {
          OFFSET 12.7242 0 0
          CHANNELS 3 Zrotation Xrotation Yrotation
          End Site
          {
            OFFSET 0 0 0
          }
        }
      }
    }
  }
  JOINT RightUpLeg
  {
    OFFSET -8.2249 1.95398 -2.59336
    CHANNELS 3 Zrotation Xrotation Yrotation
    JOINT RightLeg
    {
      OFFSET 43.5653 0 0
      CHANNELS 3 Zrotation Xrotation Yrotation
      JOINT RightFoot
      {
        OFFSET 40.6238 0 0
        CHANNELS 3 Zrotation Xrotation Yrotation
        JOINT RightToeBase
        {
          OFFSET 12.7242 0 0
          CHANNELS 3 Zrotation Xrotation Yrotation
          End Site
          {
            OFFSET 0 0 0
          }
        }
      }
    }
  }
  JOINT Spine
  {
    OFFSET 0.165834 0.87714 6.61349
    CHANNELS 3 Zrotation Xrotation Yrotation
    JOINT Spine1
    {
      OFFSET 7.38963 1.71661e-005 0
      CHANNELS 3 Zrotation Xrotation Yrotation
      JOINT Spine2
      {
        OFFSET 11.9445 1.14441e-005 0
        CHANNELS 3 Zrotation Xrotation Yrotation
        JOINT Spine3
        {
          OFFSET 14.7254 4.19617e-005 0
          CHANNELS 3 Zrotation Xrotation Yrotation
          JOINT Spine4
          {
            OFFSET 10.9679 0 0
            CHANNELS 3 Zrotation Xrotation Yrotation
            JOINT RightShoulder
            {
              OFFSET 2.46616 -1.6653 3.69651
              CHANNELS 3 Zrotation Xrotation Yrotation
              JOINT RightArm
              {
                OFFSET 13.0012 0 0
                CHANNELS 3 Zrotation Xrotation Yrotation
                JOINT RightForeArm
                {
                  OFFSET 28.7848 1.52588e-005 0
                  CHANNELS 3 Zrotation Xrotation Yrotation
                  JOINT RightHand
                  {
                    OFFSET 26.5688 1.52588e-005 0
                    CHANNELS 3 Zrotation Xrotation Yrotation
                    End Site
                    {
                      OFFSET 0 0 0
                    }
                  }
                }
              }
            }
            JOINT LeftShoulder
            {
              OFFSET 2.38034 -1.29275 -3.7523
              CHANNELS 3 Zrotation Xrotation Yrotation
              JOINT LeftArm
              {
                OFFSET 16.3182 6.10352e-005 0
                CHANNELS 3 Zrotation Xrotation Yrotation
                JOINT LeftForeArm
                {
                  OFFSET 27.0901 0 0
                  CHANNELS 3 Zrotation Xrotation Yrotation
                  JOINT LeftHand
                  {
                    OFFSET 24.5451 1.52588e-005 0
                    CHANNELS 3 Zrotation Xrotation Yrotation
                    End Site
                    {
                      OFFSET 0 0 0
                    }
                  }
                }
              }
            }
            JOINT Neck
            {
              OFFSET 5.0226 -0.0266342 0
              CHANNELS 3 Zrotation Xrotation Yrotation
              JOINT Head
              {
                OFFSET 6.69363 2.86102e-005 0
                CHANNELS 3 Zrotation Xrotation Yrotation
                End Site
                {
                  OFFSET 0 0 0
                }
              }
            }
          }
        }
      }
    }
  }
}
MOTION
Frames:	14
Frame Time:	0.0416667
-175.894 233.876 249.826 27.5524 18.7176 121.106 166.144 70.818 143.604 -3.77724 20.32 -4.83476 78.7179 -36.535 -15.3644 -2.46662 7.53565 -32.4635 174.086 63.5563 56.2603 -4.30273 -4.49451 2.74032 71.512 35.1005 16.0836 12.056 -14.3677 24.5534 0.909778 12.3799 -89.4801 2.10229 2.01779 1.05717 -9.56744 2.06237 0.967309 -32.1079 1.6068 1.61476 -12.0952 1.60681 1.61477 77.4772 -25.2522 -133.621 -56.8975 12.9996 -5.04072 5.50643 28.7466 -40.4544 -14.0954 0.278475 -7.4886 -86.9323 -26.5401 78.4015 -0.182317 -27.5085 -84.2796 8.94516 2.87614 -30.886 11.5855 0.929256 4.09794 29.8174 -2.21901 1.45234 9.78807 -2.9959 -2.92876 
-175.677 232.915 250.709 27.455 18.9676 121.308 165.827 71.1961 144.114 -3.67864 20.4497 -4.77626 78.7373 -37.1116 -15.214 -2.89736 7.86515 -33.0615 173.264 62.9823 56.5804 -4.19288 -4.31959 2.67471 71.1652 35.4741 15.3891 13.5175 -14.537 26.2121 0.873124 12.3775 -89.4438 2.10677 1.95875 1.12674 -9.56312 2.00647 1.03941 -32.1023 1.52961 1.66336 -12.0896 1.52962 1.66334 85.2935 -18.319 -122.852 -39.3904 20.9337 -18.4859 -0.779527 24.9968 -34.4449 -14.4924 0.123938 -6.13654 -86.665 -25.9931 78.783 -0.228615 -27.1071 -84.4526 9.06927 3.46551 -29.7041 11.9416 0.924204 3.85326 29.975 -2.38576 1.03635 9.6036 -2.9448 -2.55183 
-176.485 231.965 250.887 27.6079 19.3499 121.502 166.658 70.8164 142.754 -3.59565 21.1895 -4.85416 76.8088 -37.1047 -16.1287 1.13971 7.66162 -32.1317 173.42 63.1602 56.3787 -4.19641 -4.24211 2.70433 70.9523 35.719 16.0151 12.5298 -14.5097 25.2614 0.866066 12.3323 -89.4648 2.19776 1.9371 1.08292 -9.47211 1.98289 0.996604 -32.0115 1.52211 1.61507 -11.9988 1.52211 1.61507 89.9918 -18.6754 -111.858 -23.2838 26.7515 -40.6085 -3.46 24.5898 -26.8415 -15.7406 0.433158 -8.36461 -86.8672 -26.2591 78.4502 -0.647882 -26.2044 -83.6256 8.05174 1.43051 -28.9389 11.2054 0.769621 2.82864 29.9004 -2.38625 1.33216 9.43641 -3.06609 -2.63402 
-177.396 232.912 251.792 27.6877 19.0089 121.502 164.82 71.4066 144.944 -3.62159 21.0048 -5.09105 77.1651 -36.5476 -15.5614 0.518922 7.50146 -32.0012 174.164 63.7127 56.3239 -4.30387 -3.90182 2.78088 70.9202 35.4507 16.3977 11.9154 -14.5976 24.8848 0.881527 12.1365 -89.4029 2.58786 1.9942 1.19563 -9.08202 2.04491 1.10668 -31.6208 1.54272 1.7397 -11.6082 1.5427 1.73969 89.6395 -28.0544 -108.18 -13.4482 28.4002 -60.3866 -5.31308 22.5125 -19.5426 -14.0083 0.730183 -11.3641 -86.8918 -26.3188 78.4179 -0.962071 -24.1201 -80.2461 5.72237 -2.28361 -29.0061 10.6017 0.4241 0.338594 29.9265 -2.31565 1.40212 8.90153 -3.02409 -2.718 
-178.999 234.009 253.581 29.5416 21.1646 121.506 164.978 70.6295 144.11 -3.66443 21.866 -5.35596 76.9453 -36.0236 -15.9619 -0.373399 7.57932 -32.2716 174.146 61.0213 55.8748 -4.52126 -3.77173 2.95943 70.9562 35.2081 15.1649 12.6054 -14.3112 24.9271 0.836904 12.071 -89.4798 2.72118 1.87571 1.04083 -8.94878 1.9197 0.957232 -31.4879 1.47619 1.55646 -11.4753 1.47619 1.55645 90.5477 -28.8973 -105.918 -3.26442 22.3942 -63.2536 -6.57522 19.8766 -18.564 -15.1052 0.658824 -10.2961 -87.1661 -27.0856 78.0929 -2.72022 -19.1663 -75.2808 3.44054 -4.47899 -28.1757 12.4302 0.58795 1.00287 29.7135 -2.21991 1.46303 7.88643 -2.94365 -2.83676 
-181.179 233.78 255.936 31.7393 21.9741 121.306 164.641 69.1864 145.499 -3.88368 21.9776 -5.69373 74.5404 -35.4393 -16.5744 4.22852 8.68572 -33.7215 175.449 59.4454 55.1853 -4.91985 -2.12714 3.19026 69.2874 34.7417 16.7068 14.4658 -13.9263 25.8405 0.85779 11.79 -89.4533 3.28291 1.93064 1.08106 -8.38696 1.97634 0.995011 -30.9263 1.5165 1.61133 -10.9137 1.51652 1.61133 90.1856 -29.7641 -106.31 0.33751 14.7843 -59.482 -7.22063 6.98757 -17.4005 -17.6024 -0.186758 -3.77424 -87.2691 -27.7822 78.0945 -3.06428 -11.9134 -68.2424 3.45494 0.396527 -26.838 9.32184 0.604774 2.55839 29.1505 -1.94905 1.1848 6.77244 -2.55442 -2.91519 
-182.758 235.648 258.281 34.6003 24.1511 120.793 166.306 67.2874 144.053 -2.09165 22.4511 -7.74415 74.2202 -33.9485 -17.323 1.42987 7.34599 -31.6103 176.188 56.7142 55.0005 -5.29034 -1.74225 3.52821 69.062 34.1236 16.7081 13.3498 -13.9288 24.8203 0.82837 11.5343 -89.5184 3.79607 1.84856 0.939597 -7.87384 1.88812 0.857299 -30.4136 1.48073 1.45177 -10.401 1.48073 1.45177 90.178 -30.4281 -106.074 3.98101 6.02917 -55.3427 -7.48185 -9.34174 -17.2809 -16.5752 -0.298904 -2.98738 -87.8795 -29.5295 77.4143 -2.24285 -4.12275 -60.4514 4.60722 10.7196 -26.8055 4.99018 0.371493 2.9039 28.1453 -1.53941 0.733774 5.24015 -1.92744 -2.61208 
-184.17 236.013 261.273 37.4337 26.47 119.32 167.787 64.7994 143.983 0.316441 22.4769 -12.67 72.311 -31.2463 -17.4113 2.33614 7.1627 -31.1467 176.752 54.2779 53.9653 -5.57364 -1.82366 3.86219 68.5729 33.7702 16.4941 13.4317 -14.1537 25.3545 0.738264 11.1463 -89.5097 4.5731 1.67538 0.943088 -7.09707 1.71526 0.868414 -29.6353 1.3145 1.40302 -9.62268 1.3145 1.40302 89.9387 -31.4441 -106.162 8.01151 -1.71631 -49.989 -5.98627 -17.0475 -17.6942 -16.3661 -0.440478 -1.9134 -88.662 -32.2017 76.7254 -3.75363 2.17764 -52.3989 3.84614 15.8233 -26.3126 5.4357 0.396409 2.88202 26.5187 -1.39835 0.411641 3.09276 -1.59315 -2.08957 
-185.788 235.065 264.38 40.7019 28.2491 117.926 167.912 62.4819 144.465 -0.742945 22.6631 -14.5939 69.4457 -29.4095 -18.9171 6.58587 7.8905 -31.8787 177.112 51.8517 53.499 -5.81341 -1.33703 4.23929 67.8017 33.5488 17.0002 13.1509 -14.3396 25.4763 0.655717 10.6681 -89.578 5.53172 1.48592 0.793839 -6.13856 1.51942 0.727651 -28.6765 1.17865 1.20374 -8.6638 1.17866 1.20374 89.2323 -33.1683 -106.871 11.0372 -7.22077 -44.1888 -3.80591 -19.4276 -17.5064 -16.3802 -0.617674 -0.638402 -88.9408 -34.8769 76.9827 -7.74648 6.33213 -44.143 2.43092 15.8849 -25.6356 5.83848 0.382046 2.33679 24.5616 -0.639842 0.757077 0.947105 -0.941573 -1.96932 
-184.421 236.819 265.899 43.5928 30.4776 116.711 168.402 60.5843 142.907 -1.46074 23.4376 -13.305 71.5326 -28.8158 -18.9624 3.47181 6.96416 -30.5906 177.001 48.0774 53.6299 -6.08848 -0.315179 4.32857 68.3883 32.6226 17.0923 12.9795 -14.2714 25.1831 0.54458 10.098 -89.7652 6.6754 1.18801 0.416217 -4.99506 1.2052 0.363516 -27.533 1.00802 0.75404 -7.52031 1.00801 0.754059 89.7761 -33.4621 -105.743 17.2073 -11.1161 -38.9427 -2.39012 -20.213 -16.3759 -16.6488 -0.765933 0.346152 -89.2855 -37.3231 77.0508 -12.6321 7.98523 -36.7129 0.671713 12.3522 -24.2134 5.51198 0.335148 1.9082 21.8694 0.0779338 1.58498 -1.0772 -0.463078 -0.942122 
-183.13 237.156 267.017 46.4307 33.1334 115.685 170.026 57.9548 140.016 -1.08227 25.5384 -11.9005 71.941 -28.9378 -19.0136 3.82356 6.31433 -29.3308 176.36 44.1041 53.7139 -6.21198 0.55535 4.54567 68.3199 32.1946 17.1036 13.5623 -14.0685 25.2985 0.402033 9.51556 -90.0016 7.84398 0.801856 -0.0442951 -3.82672 0.799139 -0.0795622 -26.3639 0.7781 0.198758 -6.35129 0.778095 0.198748 88.9072 -35.4391 -106.648 19.2073 -12.67 -32.333 -1.47572 -17.9971 -16.7082 -16.7529 -0.689179 -0.252903 -89.0106 -37.5511 77.5846 -17.5243 8.96565 -30.7159 0.244998 12.3237 -23.1161 7.25705 0.402661 1.62914 18.8578 1.19581 2.00637 -4.11727 0.533675 1.39921 
-181.817 237.131 266.723 51.0467 35.7679 113.056 172.652 53.4855 136.317 -0.819614 27.2952 -10.7442 70.5405 -29.1983 -18.9148 7.32881 7.05032 -30.0856 175.983 39.1825 53.16 -6.31576 0.406961 4.70794 68.7887 32.0589 16.5071 13.4641 -14.0968 25.2673 0.307731 9.16502 -90.3042 8.54513 0.479554 -0.631761 -3.12589 0.451291 -0.652255 -25.661 0.647252 -0.458423 -5.64838 0.647246 -0.458437 89.2501 -35.7964 -105.898 22.8466 -11.7737 -28.0107 -2.70435 -16.603 -16.3603 -15.8341 -0.531261 -1.12588 -88.902 -38.2644 77.9574 -20.7467 9.69468 -26.5747 -0.777307 11.1568 -21.6078 7.97026 0.366581 0.835984 15.6112 2.47726 3.77983 -7.02218 1.26307 2.86163 
-177.762 238.952 263.602 57.9214 38.5351 107.279 175.573 47.0455 132.353 -1.68713 27.3216 -10.5933 73.4239 -28.4844 -17.8925 6.31166 6.99467 -30.1555 175.159 32.5844 51.85 -6.44228 -1.0967 4.21004 70.449 31.7311 15.5762 13.596 -13.9844 25.1574 0.217226 8.98526 -90.3752 8.90368 0.26623 -0.760778 -2.76746 0.232513 -0.771761 -25.3015 0.482566 -0.645596 -5.28881 0.482569 -0.645592 89.4541 -35.6435 -105.58 26.1048 -11.769 -24.3961 -2.60469 -14.7632 -15.6758 -16.0523 -0.506566 -1.36572 -88.49 -38.9025 78.8204 -22.7622 10.3597 -22.9686 -1.44255 10.5785 -20.4418 6.35224 0.159064 -0.966094 12.1716 3.35797 5.34712 -9.52935 1.71922 4.21108 
-173.31 242.743 260.578 65.4505 40.4278 100.666 178.688 35.7512 129.098 -4.37342 24.5187 -7.24105 75.0469 -31.1205 -18.1364 6.37067 7.97019 -32.0963 173.583 26.2802 50.622 -6.47755 -1.77509 3.92476 71.6255 31.3108 16.5677 14.825 -13.7004 25.7037 0.162821 8.83782 -90.3463 9.19829 0.169681 -0.698028 -2.47285 0.138788 -0.704813 -25.0069 0.371615 -0.614767 -4.99421 0.371612 -0.614767 89.3879 -36.5934 -105.379 27.2423 -12.1491 -22.188 -2.25703 -14.7557 -15.0602 -15.4843 -0.527423 -1.07017 -88.4286 -39.2275 79.0033 -25.3448 9.50882 -18.0284 -1.52849 8.57339 -19.5243 4.55302 0.0668493 -1.64013 8.64263 4.11362 6.39907 -12.5821 2.17368 5.7407 
